<svg xmlns="http://www.w3.org/2000/svg" viewBox="0 0 304.75 80.51"><defs><style>.cls-1,.cls-3{font-size:58px;font-family:Vollkorn-SemiBold, Vollkorn;font-weight:600;}.cls-1{fill:#386641;}.cls-2{letter-spacing:-0.01em;}.cls-3{fill:#0e1a11;}.cls-4{fill:none;stroke:#0e1a11;stroke-miterlimit:10;stroke-width:4px;}</style></defs><g id="Layer_2" data-name="Layer 2"><g id="Layer_3" data-name="Layer 3"><text class="cls-1" transform="translate(0 48.63)">m<tspan class="cls-2" x="54.29" y="0">a</tspan><tspan x="84.1" y="0">t</tspan></text><text class="cls-3" transform="translate(107.26 48.6)">kassen.</text></g><g id="Layer_6" data-name="Layer 6"><path class="cls-4" d="M2.4,66.51c12.54,0,12.54,12,25.08,12s12.54-12,25.08-12,12.54,12,25.08,12,12.54-12,25.08-12,12.54,12,25.08,12,12.54-12,25.08-12,12.54,12,25.09,12,12.54-12,25.08-12,12.54,12,25.08,12,12.55-12,25.09-12,12.54,12,25.09,12,12.54-12,25.09-12"/></g></g></svg>