<svg xmlns="http://www.w3.org/2000/svg" viewBox="0 0 32.97 32.97"><defs><style>.cls-1{fill:#faf7ef;fill-rule:evenodd;}</style></defs><g id="Layer_2" data-name="Layer 2"><g id="Layer_6" data-name="Layer 6"><g id="smile_happy_1"><path class="cls-1" d="M16.48,0A16.49,16.49,0,1,0,33,16.48,16.48,16.48,0,0,0,16.48,0Zm0,28.85A12.37,12.37,0,1,1,28.85,16.48,12.38,12.38,0,0,1,16.48,28.85ZM12.36,14.42a2.06,2.06,0,1,0-2.06,2.06A2.06,2.06,0,0,0,12.36,14.42Zm10.31-2.06a2.06,2.06,0,1,0,2.06,2.06A2.07,2.07,0,0,0,22.67,12.36Zm-1.6,6.18a2,2,0,0,0-1.51.68,4.12,4.12,0,0,1-6.15,0,2,2,0,0,0-1.51-.68A2.08,2.08,0,0,0,10.37,22,8.23,8.23,0,0,0,22.6,22,2.08,2.08,0,0,0,21.07,18.54Z"/></g></g></g></svg>