<svg xmlns="http://www.w3.org/2000/svg" viewBox="0 0 563.46 424.87"><defs><style>.cls-1{fill:#cdd993;}.cls-2{fill:#cedbe1;}.cls-3{fill:#f7f0df;}.cls-4{fill:none;}.cls-5{fill:#2e2e2e;}.cls-6{fill:#6a994e;}.cls-7{fill:#d9e6ee;}.cls-8{fill:#fff;}</style></defs><g id="Layer_2" data-name="Layer 2"><g id="Layer_6" data-name="Layer 6"><path class="cls-1" d="M494.32,328.64l-3.62-1.29a419.26,419.26,0,0,0,13.84-48.17,162.19,162.19,0,0,0-13.49-109.11c-14.46-29-37.62-55.24-65.22-73.93C391,72.58,355.25,65.28,336.76,78c-34,23.33-50.77,25.16-81.19,28.49-13.07,1.43-29.33,3.21-50.65,7.23-28,5.28-46.31,25-54.29,58.62-6,25.38-3.6,49.54-3.57,49.78l-3.82.4c0-.25-2.53-25,3.63-51,8.23-34.79,28.06-56.1,57.34-61.61,21.46-4,37.81-5.83,50.95-7.27,29.8-3.26,46.21-5,79.42-27.84C354.37,61.22,391.9,68.52,428,93c28.14,19.05,51.76,45.83,66.51,75.39A166,166,0,0,1,508.29,280,420.49,420.49,0,0,1,494.32,328.64Z"/><path class="cls-1" d="M447.44,155.9V329.15l-.72-.58-.08-.06L445,327.2l-1.37-1.05V159.74H422.11V298.22h-3.84V155.9Z"/><polygon class="cls-1" points="443.6 400.45 447.44 404.11 447.44 423.87 443.6 423.87 443.6 400.45"/><path class="cls-1" d="M391.46,177H249.08a9.59,9.59,0,0,0-9.58,9.56,9.59,9.59,0,0,0,9.58,9.58H391.46a9.61,9.61,0,0,0,9.57-9.58A9.58,9.58,0,0,0,391.46,177Zm4,13.61a5.6,5.6,0,0,1-4,1.69H249.08a5.75,5.75,0,0,1-5.74-5.74,5.77,5.77,0,0,1,5.74-5.72H391.46a5.74,5.74,0,0,1,5.73,5.72A5.59,5.59,0,0,1,395.49,190.58ZM383.74,208H255.6a17.32,17.32,0,0,0-17.3,17.31v54.22a17.38,17.38,0,0,0,11.2,16.19,17.21,17.21,0,0,0,6.1,1.12H383.74A17.32,17.32,0,0,0,401,279.51V225.29A17.32,17.32,0,0,0,383.74,208Zm13.45,71.53A13.46,13.46,0,0,1,383.74,293H255.6a13.44,13.44,0,0,1-13.46-13.46V225.29a13.47,13.47,0,0,1,13.46-13.47H383.74a13.47,13.47,0,0,1,13.45,13.47Zm-127.9,32.34H243a3.54,3.54,0,0,0-3.53,3.53v13A3.54,3.54,0,0,0,243,332h26.26a3.55,3.55,0,0,0,3.55-3.56v-13A3.55,3.55,0,0,0,269.29,311.85ZM269,328.1H243.34V315.69H269Zm34.94-16.25H277.68a3.55,3.55,0,0,0-3.56,3.53v13a3.56,3.56,0,0,0,3.56,3.56h26.25a3.55,3.55,0,0,0,3.55-3.56v-13A3.55,3.55,0,0,0,303.93,311.85Zm-.29,16.25H278V315.69h25.67Zm34.91-16.25H312.3a3.54,3.54,0,0,0-3.53,3.53v13A3.54,3.54,0,0,0,312.3,332h26.25a3.55,3.55,0,0,0,3.55-3.56v-13A3.55,3.55,0,0,0,338.55,311.85Zm-.29,16.25H312.61V315.69h25.65Zm5.13-12.72v13a3.55,3.55,0,0,0,3.55,3.56H362l.43-3.85H347.23V315.69h16.64l.43-3.84H346.94A3.55,3.55,0,0,0,343.39,315.38Zm-55.83,19.21H261.31a3.54,3.54,0,0,0-3.55,3.53v13a3.54,3.54,0,0,0,3.55,3.53h26.25a3.54,3.54,0,0,0,3.54-3.53v-13A3.54,3.54,0,0,0,287.56,334.59Zm-.3,16.26H261.6V338.44h25.66Zm34.82-16.26H295.81a3.53,3.53,0,0,0-3.53,3.53v13a3.53,3.53,0,0,0,3.53,3.53h26.27a3.54,3.54,0,0,0,3.53-3.53v-13A3.54,3.54,0,0,0,322.08,334.59Zm-.31,16.26H296.12V338.44h25.65ZM217,155.9V412.44h3.84V159.74H418.27V294.06h3.84V155.9Z"/><path class="cls-2" d="M269.29,332H243a3.55,3.55,0,0,1-3.53-3.55v-13a3.53,3.53,0,0,1,3.53-3.53h26.25a3.54,3.54,0,0,1,3.55,3.53v13A3.56,3.56,0,0,1,269.29,332Zm-25.94-3.85H269V315.69H243.35Z"/><path class="cls-2" d="M287.56,354.69H261.31a3.54,3.54,0,0,1-3.55-3.53v-13a3.55,3.55,0,0,1,3.55-3.54h26.25a3.56,3.56,0,0,1,3.55,3.54v13A3.55,3.55,0,0,1,287.56,354.69Zm-26-3.84h25.66V338.44H261.6Z"/><path class="cls-2" d="M303.93,332H277.68a3.56,3.56,0,0,1-3.55-3.55v-13a3.54,3.54,0,0,1,3.55-3.53h26.25a3.54,3.54,0,0,1,3.55,3.53v13A3.56,3.56,0,0,1,303.93,332Zm-26-3.85h25.66V315.69H278Z"/><path class="cls-2" d="M322.08,354.69H295.81a3.53,3.53,0,0,1-3.53-3.53v-13a3.54,3.54,0,0,1,3.53-3.54h26.27a3.54,3.54,0,0,1,3.53,3.54v13A3.53,3.53,0,0,1,322.08,354.69Zm-26-3.84h25.65V338.44H296.12Z"/><path class="cls-2" d="M338.55,332H312.3a3.55,3.55,0,0,1-3.53-3.55v-13a3.53,3.53,0,0,1,3.53-3.53h26.25a3.54,3.54,0,0,1,3.55,3.53v13A3.56,3.56,0,0,1,338.55,332Zm-25.94-3.85h25.65V315.69H312.61Z"/><path class="cls-1" d="M343.39,315.38v13a3.55,3.55,0,0,0,3.55,3.56H362l.43-3.85H347.23V315.69h16.64l.43-3.84H346.94A3.55,3.55,0,0,0,343.39,315.38Z"/><path class="cls-1" d="M269.64,369.76h88.1l-.44,3.84H269.64A13.46,13.46,0,0,0,256.18,387v36.84h-3.84V387A17.29,17.29,0,0,1,269.64,369.76Z"/><path class="cls-2" d="M391.46,196.11H249.08a9.59,9.59,0,0,1-9.57-9.58,9.59,9.59,0,0,1,9.57-9.57H391.46a9.59,9.59,0,0,1,9.57,9.57,9.61,9.61,0,0,1-9.57,9.58Zm-142.38-15.3a5.74,5.74,0,0,0-5.73,5.72,5.74,5.74,0,0,0,5.73,5.73H391.46a5.74,5.74,0,0,0,5.72-5.73,5.73,5.73,0,0,0-5.72-5.72Z"/><path class="cls-2" d="M301.18,284.76H263.23A12.76,12.76,0,0,1,250.49,272V232.87a12.76,12.76,0,0,1,12.74-12.76h37.95a12.76,12.76,0,0,1,12.74,12.76V272A12.76,12.76,0,0,1,301.18,284.76ZM263.23,224a8.92,8.92,0,0,0-8.89,8.92V272a8.92,8.92,0,0,0,8.89,8.92h37.95a8.92,8.92,0,0,0,8.9-8.92V232.87a8.92,8.92,0,0,0-8.9-8.92Z"/><path class="cls-2" d="M375.69,284.81H337.64a12.76,12.76,0,0,1-12.74-12.76V232.82a12.76,12.76,0,0,1,12.74-12.76h38.05a12.76,12.76,0,0,1,12.74,12.76v39.23A12.76,12.76,0,0,1,375.69,284.81ZM337.64,223.9a8.92,8.92,0,0,0-8.89,8.92v39.23a8.92,8.92,0,0,0,8.89,8.92h38.05a8.92,8.92,0,0,0,8.9-8.92V232.82a8.92,8.92,0,0,0-8.9-8.92Z"/><path class="cls-1" d="M383.74,209.9H255.6a15.38,15.38,0,0,0-15.38,15.38v54.24A15.39,15.39,0,0,0,255.6,294.9H383.74a15.38,15.38,0,0,0,15.37-15.38V225.28A15.37,15.37,0,0,0,383.74,209.9ZM312,272a10.83,10.83,0,0,1-10.82,10.84H263.23A10.83,10.83,0,0,1,252.41,272V232.87A10.83,10.83,0,0,1,263.23,222h37.95A10.83,10.83,0,0,1,312,232.87Zm74.51.05a10.83,10.83,0,0,1-10.82,10.84H337.64a10.82,10.82,0,0,1-10.81-10.84V232.82A10.82,10.82,0,0,1,337.64,222h38.05a10.83,10.83,0,0,1,10.82,10.84Z"/><path class="cls-2" d="M301.18,284.76H263.23A12.76,12.76,0,0,1,250.49,272V232.87a12.76,12.76,0,0,1,12.74-12.76h37.95a12.76,12.76,0,0,1,12.74,12.76V272A12.76,12.76,0,0,1,301.18,284.76ZM263.23,224a8.92,8.92,0,0,0-8.89,8.92V272a8.92,8.92,0,0,0,8.89,8.92h37.95a8.92,8.92,0,0,0,8.9-8.92V232.87a8.92,8.92,0,0,0-8.9-8.92Z"/><path class="cls-2" d="M375.69,284.81H337.64a12.76,12.76,0,0,1-12.74-12.76V232.82a12.76,12.76,0,0,1,12.74-12.76h38.05a12.76,12.76,0,0,1,12.74,12.76v39.23A12.76,12.76,0,0,1,375.69,284.81ZM337.64,223.9a8.92,8.92,0,0,0-8.89,8.92v39.23a8.92,8.92,0,0,0,8.89,8.92h38.05a8.92,8.92,0,0,0,8.9-8.92V232.82a8.92,8.92,0,0,0-8.9-8.92Z"/><path class="cls-1" d="M375.69,284.81H337.64a12.76,12.76,0,0,1-12.74-12.76V232.82a12.76,12.76,0,0,1,12.74-12.76h38.05a12.76,12.76,0,0,1,12.74,12.76v39.23A12.76,12.76,0,0,1,375.69,284.81ZM337.64,223.9a8.92,8.92,0,0,0-8.89,8.92v39.23a8.92,8.92,0,0,0,8.89,8.92h38.05a8.92,8.92,0,0,0,8.9-8.92V232.82a8.92,8.92,0,0,0-8.9-8.92Z"/><path class="cls-1" d="M301.18,284.76H263.23A12.76,12.76,0,0,1,250.49,272V232.87a12.76,12.76,0,0,1,12.74-12.76h37.95a12.76,12.76,0,0,1,12.74,12.76V272A12.76,12.76,0,0,1,301.18,284.76ZM263.23,224a8.92,8.92,0,0,0-8.89,8.92V272a8.92,8.92,0,0,0,8.89,8.92h37.95a8.92,8.92,0,0,0,8.9-8.92V232.87a8.92,8.92,0,0,0-8.9-8.92Z"/><path class="cls-2" d="M269.29,332H243a3.55,3.55,0,0,1-3.53-3.55v-13a3.53,3.53,0,0,1,3.53-3.53h26.25a3.54,3.54,0,0,1,3.55,3.53v13A3.56,3.56,0,0,1,269.29,332Zm-25.94-3.85H269V315.69H243.35Z"/><path class="cls-1" d="M303.93,332H277.68a3.56,3.56,0,0,1-3.55-3.55v-13a3.54,3.54,0,0,1,3.55-3.53h26.25a3.54,3.54,0,0,1,3.55,3.53v13A3.56,3.56,0,0,1,303.93,332Zm-26-3.85h25.66V315.69H278Z"/><path class="cls-1" d="M338.55,332H312.3a3.55,3.55,0,0,1-3.53-3.55v-13a3.53,3.53,0,0,1,3.53-3.53h26.25a3.54,3.54,0,0,1,3.55,3.53v13A3.56,3.56,0,0,1,338.55,332Zm-25.94-3.85h25.65V315.69H312.61Z"/><path class="cls-1" d="M287.56,354.69H261.31a3.54,3.54,0,0,1-3.55-3.53v-13a3.55,3.55,0,0,1,3.55-3.54h26.25a3.56,3.56,0,0,1,3.55,3.54v13A3.55,3.55,0,0,1,287.56,354.69Zm-26-3.84h25.66V338.44H261.6Z"/><path class="cls-1" d="M322.08,354.69H295.81a3.53,3.53,0,0,1-3.53-3.53v-13a3.54,3.54,0,0,1,3.53-3.54h26.27a3.54,3.54,0,0,1,3.53,3.54v13A3.53,3.53,0,0,1,322.08,354.69Zm-26-3.84h25.65V338.44H296.12Z"/><path class="cls-1" d="M391.46,196.11H249.08a9.59,9.59,0,0,1-9.57-9.58,9.59,9.59,0,0,1,9.57-9.57H391.46a9.59,9.59,0,0,1,9.57,9.57,9.61,9.61,0,0,1-9.57,9.58Zm-142.38-15.3a5.74,5.74,0,0,0-5.73,5.72,5.74,5.74,0,0,0,5.73,5.73H391.46a5.74,5.74,0,0,0,5.72-5.73,5.73,5.73,0,0,0-5.72-5.72Z"/><path class="cls-1" d="M263.41,386.35v3a4.83,4.83,0,0,0,4.82,4.82H355l.43-3.84H268.23a1,1,0,0,1-1-1v-3a1,1,0,0,1,1-1H356l.44-3.84H268.23A4.83,4.83,0,0,0,263.41,386.35Z"/><path class="cls-1" d="M263.41,404.56v3a4.83,4.83,0,0,0,4.82,4.81H352.9l.44-3.84H268.23a1,1,0,0,1-1-1v-3a1,1,0,0,1,1-1H353.9l.43-3.85h-86.1A4.84,4.84,0,0,0,263.41,404.56Z"/><path class="cls-1" d="M474.92,159.48H183.12V147.3a21.57,21.57,0,0,1,21.55-21.54H453.38a21.56,21.56,0,0,1,21.54,21.54Zm-288-3.84H471.08V147.3a17.72,17.72,0,0,0-17.7-17.7H204.67A17.72,17.72,0,0,0,187,147.3Z"/><polygon class="cls-1" points="560.75 398.95 473.27 311.48 450.74 311.48 450.74 307.64 474.87 307.64 563.46 396.23 560.75 398.95"/><rect class="cls-1" x="471.46" y="309.56" width="3.84" height="48.37"/><rect class="cls-1" x="497.6" y="335.01" width="3.84" height="60.31"/><rect class="cls-1" x="523.14" y="360.65" width="3.84" height="61.03"/><path class="cls-2" d="M195,424.32c-1-4.25-2.17-8.25-3.37-11.89l3.65-1.2c1.23,3.73,2.39,7.83,3.45,12.18Z"/><polygon class="cls-2" points="220.7 399.02 216.86 399.02 216.86 254.33 195.37 254.33 195.37 392.42 191.53 392.42 191.53 250.49 220.7 250.49 220.7 399.02"/><polygon class="cls-1" points="37.68 423.87 33.84 423.87 33.84 250.49 195.37 250.49 195.37 392.42 191.53 392.42 191.53 254.33 37.68 254.33 37.68 423.87"/><path class="cls-1" d="M127.73,396.31H105.24a23.46,23.46,0,0,1-23.43-23.43V293.43A23.46,23.46,0,0,1,105.24,270h22.49a23.46,23.46,0,0,1,23.43,23.43v79.45A23.46,23.46,0,0,1,127.73,396.31ZM105.24,273.84a19.61,19.61,0,0,0-19.59,19.59v79.45a19.61,19.61,0,0,0,19.59,19.59h22.49a19.61,19.61,0,0,0,19.59-19.59V293.43a19.61,19.61,0,0,0-19.59-19.59Z"/><path class="cls-2" d="M124.88,329.56H108.15a17,17,0,0,1-17-17V296.74a17,17,0,0,1,17-17h16.73a17,17,0,0,1,17,17v15.79A17,17,0,0,1,124.88,329.56Zm-16.73-46A13.21,13.21,0,0,0,95,296.74v15.79a13.2,13.2,0,0,0,13.19,13.19h16.73a13.19,13.19,0,0,0,13.18-13.19V296.74a13.2,13.2,0,0,0-13.18-13.19Z"/><path class="cls-1" d="M124.86,386.92h-16.7a17,17,0,0,1-17-17V354.15a17,17,0,0,1,17-17h16.7a17,17,0,0,1,17,17v15.76A17,17,0,0,1,124.86,386.92ZM108.16,341A13.18,13.18,0,0,0,95,354.15v15.76a13.19,13.19,0,0,0,13.16,13.17h16.7A13.18,13.18,0,0,0,138,369.91V354.15A13.17,13.17,0,0,0,124.86,341Z"/><path class="cls-1" d="M220.8,254.08H0V237.8a17.46,17.46,0,0,1,17.44-17.44H220.8Zm-217-3.84H217v-26H17.44a13.61,13.61,0,0,0-13.6,13.6Z"/><path class="cls-1" d="M223.81,424.41a13.49,13.49,0,0,0-.87-2c-.8-1.58-1.7-3.38-1.31-5.45.45-2.34,2.34-4,4-5.45,1.19-1,2.42-2.12,2.72-3.12a10.53,10.53,0,0,0,.17-3.1,19.33,19.33,0,0,1,0-2.84,34.43,34.43,0,0,1,.81-4.62,21.35,21.35,0,0,0-9.47,2.73l-.2.12a10,10,0,0,0-3.65,3.6,14.43,14.43,0,0,0-1.19,4.47c-.12.75-.24,1.49-.4,2.23a11.32,11.32,0,0,1-2.58,5.42,20.64,20.64,0,0,1-3.1,2.66c-.41.31-.82.62-1.21.94l-1.17-1.46-1.47-1.32.23-.22,1.31-1a18.54,18.54,0,0,0,2.55-2.15,7.6,7.6,0,0,0,1.69-3.67c.14-.67.25-1.35.35-2a17.68,17.68,0,0,1,1.59-5.65,13.76,13.76,0,0,1,5.14-5.15l.22-.13A25.42,25.42,0,0,1,232,394l2.48.14-.76,2.36a31.72,31.72,0,0,0-1.36,6.36,15.74,15.74,0,0,0,0,2.29,13.27,13.27,0,0,1-.33,4.34c-.62,2.07-2.27,3.52-3.87,4.91-1.26,1.1-2.55,2.24-2.75,3.28a5.7,5.7,0,0,0,1,3,15.07,15.07,0,0,1,1.12,2.63Z"/><path class="cls-1" d="M216.25,424.46l-3.66-1.18a99.91,99.91,0,0,1,4.55-11.66A48.39,48.39,0,0,1,226,398.25l2.74,2.68a45,45,0,0,0-8.08,12.32A93.66,93.66,0,0,0,216.25,424.46Z"/><path class="cls-2" d="M195,424.32c-1-4.25-2.17-8.25-3.37-11.89l3.65-1.2c1.23,3.73,2.39,7.83,3.45,12.18Z"/><path class="cls-1" d="M184,424.87a7.28,7.28,0,0,1-1-2.69,11.13,11.13,0,0,1,1.22-6,7.83,7.83,0,0,0,1-3.86c-.21-1.37-1.44-2.66-2.73-4-1.45-1.52-3.08-3.24-3.64-5.51a17.82,17.82,0,0,1-.3-4.87,24.17,24.17,0,0,0,0-2.7,44.87,44.87,0,0,0-1-6.17v0l-.06-.24v0l0-.08c-.07-.32-.16-.64-.24-1l-.61-2.25,2.33-.16a21.67,21.67,0,0,1,10.84,2.12,1.1,1.1,0,0,1,.23.1,18.57,18.57,0,0,1,4.92,3.55,13.15,13.15,0,0,1,2.78,4.05,22.83,22.83,0,0,1,1.47,6.38c.33,2.52.64,4.9,2.07,6.82l.19.26a21.93,21.93,0,0,0,2.21,2.21,18.33,18.33,0,0,1,3.41,3.77,9.36,9.36,0,0,1,1.2,3l0,.23c0,.17.07.35.09.49a22.28,22.28,0,0,1-.17,5.79l-3.82-.46a18.92,18.92,0,0,0,.18-4.84l-.06-.29,0-.19a5.41,5.41,0,0,0-.71-1.74,15,15,0,0,0-2.72-2.94,21.79,21.79,0,0,1-2.9-3l-.38-.55c-1.69-2.58-2-5.37-2.41-8.07a19.56,19.56,0,0,0-1.19-5.35,9.33,9.33,0,0,0-2-2.88,14.46,14.46,0,0,0-3.91-2.82l-.18-.08a17.94,17.94,0,0,0-6.59-1.74,49.48,49.48,0,0,1,.88,5.72,26,26,0,0,1,0,3.18,15.09,15.09,0,0,0,.19,3.82c.32,1.28,1.47,2.5,2.69,3.79,1.57,1.65,3.35,3.52,3.75,6.07.35,2.2-.48,4.18-1.21,5.94a8,8,0,0,0-1,3.93,3.37,3.37,0,0,0,.5,1.28Z"/><path class="cls-1" d="M195,424.32c-1-4.25-2.17-8.25-3.37-11.89-2.85-8.67-6.12-15.32-9.74-19.77l3-2.42c3.91,4.81,7.41,11.88,10.4,21,1.23,3.73,2.39,7.83,3.45,12.18Z"/><path class="cls-1" d="M214.51,410.6l-3.84,0c0-6.12-1-13.59-2.68-14.55-.11-.07-.37.06-.52.15-4.32,2.43-5.77,10.51-6,13.42l-3.83-.25c0-.51.88-12.57,7.91-16.52a4.17,4.17,0,0,1,4.35-.11C214.28,395.27,214.54,407.05,214.51,410.6Z"/><path class="cls-1" d="M204.47,418.89a30.09,30.09,0,0,1,1-14l3.63,1.25a26.81,26.81,0,0,0-.88,12.05Z"/><path class="cls-3" d="M301,208a5.25,5.25,0,0,1-.67,1.92,4.64,4.64,0,0,1-.44.65l-.74,1.27-4.82,8.29L293.25,222,292.14,224l-7.64,13.14-.53,5.35v.14l-3.82,38.34-.19,1.92-.19,1.92-.59,5.88-.23,2.33-.19,1.92-.19,1.93-1.51,15.08h0l-.2,2.09-.8,8-.89,8.88-.37,3.69-.19,1.92-.19,1.93-1.24,12.41-.19,1.92-.19,1.92-1.24,12.47c-.05.49-.15,1-.23,1.46s-.1.76-.18,1.14v0c-.09.5-.21,1-.33,1.46,0,.15-.07.29-.1.44s-.13.49-.2.73a11.82,11.82,0,0,1-.39,1.19,1.34,1.34,0,0,1-.07.18c-.13.39-.26.78-.39,1.15s-.37.89-.56,1.33-.35.71-.53,1.09-.43.83-.66,1.23a9.84,9.84,0,0,1-.62,1c-.24.41-.49.79-.76,1.17a11.56,11.56,0,0,1-.7,1l-.71.9c-.28.35-.56.68-.85,1l-.16.18c-.22.27-.47.54-.72.81s-.66.62-1,.92-.6.57-.92.84-.69.56-1,.83-.66.52-1,.76-.73.5-1.09.76l-1.09.66-1.08.62-.06,0-1.18.57-.68.33-.49.22c-.41.17-.85.33-1.29.49l-.14.05c-.34.12-.69.26-1,.36a18,18,0,0,1-1.91.52l-.33.08a8.24,8.24,0,0,1-.89.19l-.41.07c-.4.09-.8.16-1.22.22h0l.06.11h0l.12.26.73,1.55,4.86,10.39.17.37h5.59c-.63.09-1.28.16-1.92.2l-.42,0c-.45,0-.91,0-1.37,0h-.73c-.34,0-.67,0-1,0l1.6,3.41,1.92,4.09,4.79,10.2H250.84L237.47,395l-.72-1.53-.18-.39-15.77-1.28h-.09l-1.83-.14h-.09l-1.83-.15h-.1l-21.49-1.73-1.92-.16-.3,0-1.62-.14-2.5-.2-9.76-.79-2-.17-30-2.42L145,385.7l-2.32-.19-9.51-.77-4.13-.33-16.43-1.33-8.69-.71-4.8-.38L96,381.73,87.43,381l-2.16-.17-.67-.06a2.27,2.27,0,0,0-.35-.05c-.38,0-.75-.07-1.12-.12s-.61-.1-.91-.15a6.25,6.25,0,0,1-.67-.11c-.76-.14-1.48-.3-2.2-.49a6.36,6.36,0,0,1-.62-.19c-.67-.19-1.34-.41-2-.65-.19-.06-.35-.14-.52-.2-.6-.24-1.21-.5-1.8-.79a6.67,6.67,0,0,1-.71-.35c-.54-.27-1.08-.55-1.6-.87h0A29.17,29.17,0,0,1,57.74,351.7V285.84a29.2,29.2,0,0,1,25.06-28.9l18.13-2.61,1.74-.25,11.63-1.67,1.81-.26,11.55-1.66,1.81-.26L217,237.66l1.92-.28,1.92-.29,17.5-2.5,1.92-.28,1.92-.28,8.35-1.19,1.93-.28,1.93-.28,18.78-2.7,4.06-5.63,1.39-1.92,1.39-1.92,5-7,.92-1.29,1.39-1.92.12-.16,1.27-1.76,3.16-4.37a5.2,5.2,0,0,1,2.81-1.57h0a4.69,4.69,0,0,1,1.5-.08h.1a5.23,5.23,0,0,1,3.36,1.7,4,4,0,0,1,.41.5A5.27,5.27,0,0,1,301,208Z"/><path class="cls-4" d="M469.7,423.87c-3-3-6.44-6.36-10.31-10.1l-.51-.48-.26-.27-.64-.62L449.07,404l-.64-.62-.05,0-.49-.46v0l-.45-.43-1.92-1.82-1.92-1.83-21.49-20.42-1.92-1.83-1.92-1.82L406,363l-.36-.34,0,0h0l0,0-.43-.41,0,0s0-.05,0-.06l-.65-.61-.8-.75-.36,1.38-15,59.5-.51,2-.06.23m-1.35,0H355.47"/><path class="cls-3" d="M352.2,175l-1.16-.44a1.49,1.49,0,0,1-.24-.14C344.74,170.48,340,164.94,336,159c-4.26-6.21-18.91-12.6-23.65-18.48-3-3.72-6.21-8-10.86-9.86-2.39-.94-4.95-.76-7.33-1.7a13,13,0,0,1-6.12-5.09,17.07,17.07,0,0,1-1.58-3.1l0,0v0a2.78,2.78,0,0,1-.12-.38,7.86,7.86,0,0,1-.38-1.16,10.77,10.77,0,0,1-.31-1.07,19.46,19.46,0,0,1-.44-2,38.28,38.28,0,0,1-.47-4.56v-.07c-.05-1.54,0-3.07,0-4.56h0v0l-.08,0-6.8-2.4a5.5,5.5,0,0,1-3.69-4.24,4.11,4.11,0,0,1,.06-1.64A4.93,4.93,0,0,1,280.62,95l13.71,5,2.81,1,.07,0s0-4.18,4-4.09c3.7.09,17.12,1.18,21.09,15.85a11.94,11.94,0,0,0,3.6,5.77L358.3,138a14.44,14.44,0,0,0,7.91,3.63l0,4.12a0,0,0,0,0,0,.06v3l2.58,18,1.82,12.61a31.2,31.2,0,0,1-7.1-.25l-1.55-.58h0Z"/><path class="cls-4" d="M297.22,101.07s-.63,6.52,8.76,7.9"/><path class="cls-4" d="M284.72,111.78s1.29,7.27,11.41,7.08a3.85,3.85,0,0,0,2.26-6.87l-.14-.1"/><path class="cls-4" d="M297.62,117.75s.16.22.36.57c.64,1.15,1.62,3.84-1.74,5.36-4.63,2.09-9.26-2.31-9.85-2.88"/><path class="cls-4" d="M286.39,120.79l-.05-.05"/><line class="cls-4" x1="284.7" y1="106.98" x2="291.23" y2="109"/><path class="cls-5" d="M365.81,145.58v0h0v0s0,0,0,0c-.77,6.75-1.53,14.6-2.13,23.27-4.32,2-8.73,3.74-13.07,5.47a1.5,1.5,0,0,1-.23-.15,44,44,0,0,1-8.06-6.79l-36.78-22.83a19.62,19.62,0,0,0,6-4.65l.11-.11c6.93-7.44,12.94-20,13.69-21.58.05,0,.11.1.16.16l32.4,19.41a14.61,14.61,0,0,0,7.92,3.63Z"/><path class="cls-6" d="M300.57,107.29l-.74,2-.71,1.94-.42,1.09v0l-.05.16-.08.2a2,2,0,0,1-2.5,1.24l-11.73-3.6,0,0-16.85-5.17,4.38-10.35,1.92-4.55a2.51,2.51,0,0,1,3.07-1.4L300,96.18a13.72,13.72,0,0,0-2.29-.32A3.68,3.68,0,0,0,294.8,97a3,3,0,0,0-.76,1.47,2.93,2.93,0,0,0,0,1.5,7.89,7.89,0,0,0,2,3.56,4.11,4.11,0,0,0,.29.31,13.14,13.14,0,0,0,3,2.45l.07.06s0,0,0,0A10.07,10.07,0,0,0,300.57,107.29Z"/><path d="M310.55,141.23l-.49-.6c-2.73-3.4-5.56-6.91-9.42-8.46a14.77,14.77,0,0,0-3.27-.75,19.33,19.33,0,0,1-4-.95,15.07,15.07,0,0,1-7-5.84,20.28,20.28,0,0,1-1-1.8h-.67l0-1.53-.06-.14c-.17-.43-.31-.86-.45-1.3s-.25-.81-.36-1.22a20.81,20.81,0,0,1-.47-2.14,34.2,34.2,0,0,1-.53-5c0-.37,0-.78,0-1.18h3.85q0,.51,0,1a31.65,31.65,0,0,0,.48,4.5,15.32,15.32,0,0,0,.4,1.81,9.11,9.11,0,0,0,.27.95q.06.21.12.39h0l.58,1.5a13.92,13.92,0,0,0,1.12,2.07,11.16,11.16,0,0,0,5.21,4.33,15.12,15.12,0,0,0,3.21.73,18.32,18.32,0,0,1,4.1,1c4.8,1.92,8.09,6,11,9.62l.48.6Z"/><path d="M365.24,144l-40.58-24.16-.14-.13a13.89,13.89,0,0,1-4.15-6.72,19,19,0,0,0-6.23-10A20.39,20.39,0,0,0,305,99c-1.07-.22-2.14-.4-3.22-.59l-1-.18-.74-.14a12.58,12.58,0,0,0-2-.3,1.84,1.84,0,0,0-1.42.52,1.37,1.37,0,0,0-.36,1.31,6,6,0,0,0,1.55,2.7,12,12,0,0,0,2.81,2.38l.47.3a14.83,14.83,0,0,0,1.85.89c.44.17.94.33,1.55.51s1.06.23,1.79.35l-.62,3.79c-.83-.13-1.52-.27-2.15-.43-.8-.22-1.4-.42-2-.63a17.49,17.49,0,0,1-2.8-1.41l-.51-.23-.07-.14a16.13,16.13,0,0,1-3.26-2.86,9.66,9.66,0,0,1-2.41-4.47,5.22,5.22,0,0,1,1.21-4.58,5.64,5.64,0,0,1,4.43-1.84,15.61,15.61,0,0,1,2.68.37l1.69.3c1.11.2,2.22.39,3.32.62A24,24,0,0,1,316.55,100a22.85,22.85,0,0,1,7.53,12,10.16,10.16,0,0,0,2.88,4.75l40.24,24Z"/><path d="M295.67,120.44c-9,0-12.38-5.64-12.92-8.66l3.78-.7c.05.23,1.2,5.52,9.13,5.52H296a1.86,1.86,0,0,0,1.75-1.34,1.82,1.82,0,0,0-.62-2.08l-.11-.08,2.27-3.1.15.12a5.76,5.76,0,0,1-3.37,10.32Z"/><path d="M293.56,125.82c-4.68,0-8.48-3.88-8.67-4.08l2.76-2.67s4.1,4.16,7.72,2.52c.71-.32,1.12-.68,1.22-1.08a2.85,2.85,0,0,0-.58-1.94l3.07-2.31a6.61,6.61,0,0,1,1.24,5.19,5.53,5.53,0,0,1-3.36,3.64A8.25,8.25,0,0,1,293.56,125.82Z"/><rect x="297.69" y="111.1" width="3.84" height="0.38" transform="translate(107.05 366.38) rotate(-73.33)"/><path class="cls-7" d="M247.47,393.2a28.56,28.56,0,0,1-6.35.18l-3.34-.27Z"/><path class="cls-6" d="M285,242.44,272.52,367.17a29.21,29.21,0,0,1-25,26,28.65,28.65,0,0,1-6.36.18l-3.34-.27L85.59,380.8a28.87,28.87,0,0,1-12.49-4,28.81,28.81,0,0,1-2.77-12.4v-2.9l139.81,11.31,3.34.27a28.65,28.65,0,0,0,6.36-.18,29.2,29.2,0,0,0,25-26l10-100.15Z"/><path class="cls-1" d="M254.87,246.76l-10,100.15a29.2,29.2,0,0,1-25,26,28.65,28.65,0,0,1-6.36.18l-3.34-.27L70.33,361.54v-63a29.21,29.21,0,0,1,25-28.91Z"/><path class="cls-7" d="M259.08,406a28.65,28.65,0,0,1-6.36.18l-3.34-.28Z"/><path class="cls-5" d="M261.93,423.87h-10.1L238.5,395.09l-.93-2h.08l2,0,6.86.06h1l.84,1.8,4,8.42,1.16,2.48h0l.14.29h0l.6,1.29,1.92,4.1Z"/><path d="M243.45,395.4c-.83,0-1.66,0-2.49-.11h0L85.44,382.72a31.28,31.28,0,0,1-28.62-31V285.84A31.28,31.28,0,0,1,83.52,255L273,227.8l18.44-25.51a7.3,7.3,0,0,1,5.28-2.29h0a7.31,7.31,0,0,1,5.3,2.35,7.22,7.22,0,0,1,.42,9.29L287.35,237.7,274.44,367.35A31.32,31.32,0,0,1,243.45,395.4Zm50.9-190.56-19.16,26.53L84.06,258.83a27.43,27.43,0,0,0-23.4,27V351.7a27.42,27.42,0,0,0,25.09,27.19l155.52,12.57A27.41,27.41,0,0,0,270.62,367l13-130.48,15.8-27.13a3.38,3.38,0,0,0-.15-4.41,3.33,3.33,0,0,0-2.49-1.1A3.37,3.37,0,0,0,294.35,204.84Z"/><polygon points="253.57 423.06 252.34 423.63 251.83 423.87 249.71 423.87 236.29 394.92 235.83 393.91 236.75 393.48 237.57 393.1 237.58 393.1 239.32 392.29 239.7 393.12 239.7 393.13 239.77 393.26 239.77 393.28 240.7 395.27 252.34 420.39 253.57 423.06"/><polygon points="263.68 423.05 261.93 423.87 259.8 423.87 256.18 416.14 252.34 407.95 251.43 406.03 251.36 405.87 246.39 395.26 245.81 394.01 246.75 393.57 247.55 393.19 247.56 393.19 248.19 392.89 249.29 392.37 249.41 392.62 249.51 392.84 250.34 394.61 252.34 398.86 255.64 405.91 255.65 405.92 255.76 406.16 255.78 406.21 256.18 407.06 263.68 423.05"/><path d="M297,116a4,4,0,0,1-1.18-.18l-29.63-9.09a4.44,4.44,0,0,1-2.71-2.36,4.48,4.48,0,0,1-.06-3.59l6.54-15.48a4.41,4.41,0,0,1,5.43-2.48l28.39,9a4.42,4.42,0,0,1,2.71,6L303,96.2a.56.56,0,0,0,0-.48.58.58,0,0,0-.36-.32l-28.4-9a.6.6,0,0,0-.73.33l-6.53,15.47a.57.57,0,0,0,0,.47.58.58,0,0,0,.35.31l29.64,9.09a.1.1,0,0,0,.14-.07l.55-1.47,1.52-4.12,3.6,1.34-2.06,5.56A4,4,0,0,1,297,116Z"/><rect x="280.5" y="81.36" width="3.84" height="26.58" transform="translate(105.39 334.19) rotate(-72.06)"/><path d="M349.74,176l-44.19-29.2a2.33,2.33,0,0,1-1.06-2.07,2.38,2.38,0,0,1,1.26-2c8.74-4.66,18.22-25.07,18.31-25.28l3.49,1.61c-.38.83-8.83,19-18,25.78l42.28,27.93Z"/><path d="M305.14,146.51a4.33,4.33,0,0,1-2.38-2.88c-1-3.68,2.38-8.84,3.07-9.84L309,136c-1.25,1.82-2.91,5.21-2.52,6.68a.55.55,0,0,0,.34.4Z"/><path class="cls-5" d="M310.43,186.78s-2.23.09,2.25,5.74,6,16.38,2.95,24.06c0,0-.13,2,7.84-.5s35.93-8.33,35.93-8.33,4.37-2.3,3,3.53-4,27.27-6.77,33.46-5.46,12.31,4.06,14.63,61.49,7.21,61.49,7.21,35.34,7.83,35-8.4-3-63-3-63,.22-36.07,2.6-57.4c0,0,6.22-54.2-12.26-59.21s-24.76.33-29.46,2.85-46,24.14-48.27,68.73c0,0-.16,17.22-3.64,19.78S317.89,186.62,310.43,186.78Z"/><path class="cls-6" d="M442.75,267.6c-.44,0-.89,0-1.34,0q-2.67,17.24-5.94,34.35c-25.47-5.7-60.65,4.41-60.65,4.41l.74,4c-5.81.31-7.58-1.83-7.58-1.83l-1.28-.8,3.2-28.19-.62-3.34,0-.11c-.38-2-.74-3.94-1.08-5.9l-.13-.73c-.51-3-1-6.08-1.4-9.11l.42,0c.14,0,.29.06.45.07l.36.06.93.13c.69.09,1.53.21,2.49.36.38,0,.78.09,1.2.16C387,263.24,424.65,268.14,442.75,267.6Z"/><polygon points="369.88 296.81 368.5 309.04 368.18 311.84 368.18 311.85 367.74 315.69 366.34 328.1 365.9 331.95 361.61 369.75 361.18 373.6 360.27 381.53 359.84 385.37 359.28 390.35 358.84 394.19 358.21 399.74 357.77 403.59 357.21 408.56 356.77 412.4 355.46 423.87 353.53 423.87 352.57 423.75 351.62 423.65 352.9 412.4 353.34 408.56 353.9 403.59 354.33 399.74 354.97 394.19 355.4 390.35 355.96 385.37 356.4 381.53 357.3 373.6 357.74 369.75 362.03 331.95 362.46 328.1 363.87 315.69 364.3 311.85 364.3 311.84 366.02 296.81 369.88 296.81"/><polygon points="371.81 279.82 371.68 280.97 371.46 282.89 371.24 284.81 370.35 292.69 370.31 292.97 370.1 294.89 369.88 296.81 366.02 296.81 366.45 292.97 367.38 284.81 367.81 280.97 367.96 279.67 367.99 279.38 368.89 279.48 369.9 279.6 371.81 279.82"/><polygon points="406.52 360.89 406.25 361.88 406.25 361.94 406.21 362.07 405.98 362.99 405.63 364.37 390.58 423.87 388.61 423.87 388.2 423.76 387.69 423.64 386.75 423.4 388.2 417.69 402.43 361.34 402.81 359.87 406.52 360.89"/><path d="M284,213.21a6.73,6.73,0,0,1-2.84-.67c-6.55-3-5.29-10-4.75-12.91,1.12-6.07,6-11.15,11.6-12.08,3.4-.57,6.86-.88,10.22-1.18s6.88-.61,10.24-1.19A202.56,202.56,0,0,0,348,173.66l1.79-.71c13.84-5.5,28.15-11.19,38-22.08,14.13-15.62,21.08-35.39,24.43-49.23l3.73.9c-3.45,14.27-10.64,34.69-25.31,50.91-10.43,11.55-25.16,17.41-39.41,23.08l-1.79.7A206.32,206.32,0,0,1,309.17,189c-3.53.61-7.11.93-10.58,1.24-3.27.29-6.66.59-9.91,1.14-4,.66-7.64,4.53-8.46,9-.92,5.06-.22,7.43,2.59,8.73,2.08,1,3.5-.52,6-3.91a20.15,20.15,0,0,1,3.06-3.55c5-4.25,10.12-1,14.21,1.62,1,.62,2,1.26,2.94,1.8a9.09,9.09,0,0,0,4.8,1.42h.11s1.1,0,3.07-.1l.17,3.83c-1.79.08-2.88.11-3.13.11a12.91,12.91,0,0,1-6.85-1.88c-1.1-.6-2.16-1.28-3.18-1.93-4.34-2.78-6.93-4.24-9.67-1.92a18.23,18.23,0,0,0-2.44,2.89C290.13,209.82,287.62,213.21,284,213.21Z"/><path class="cls-3" d="M518.94,146.66a3.54,3.54,0,0,0-.11-.44,28.21,28.21,0,0,0-9.06-14l-.16-.11c-.41-.29-.83-.57-1.26-.85s-1.15-.7-1.74-1l-.16-.08a38.45,38.45,0,0,1-6.42-3.82l-.1-.07a20.89,20.89,0,0,1-6.87-6.81,1.86,1.86,0,0,1-.1-.2s0,0,0-.06a12.33,12.33,0,0,1-2.31-7.68v-.08c-.49-4.41,0-9-.18-13.52,0-.28,0-.55-.05-.83s-.05-.62-.07-.89a.86.86,0,0,0,0-.28,25.39,25.39,0,0,0-.34-2.64c-1.55-8.36-6.92-15.81-13.49-21.06a3.39,3.39,0,0,0-.46-.34,47.61,47.61,0,0,0-20.72-8.32h-.15a40.58,40.58,0,0,1-5.61-.51h-.08a8,8,0,0,1-4.88-3.06,13.17,13.17,0,0,1-1.2-1.84.26.26,0,0,1-.1-.15,17.75,17.75,0,0,1-2.65-7c-.05-.25-.12-.49-.15-.72-1.14-5.42-1.17-11.31-1.2-16.17a43.82,43.82,0,0,0-9.57-24s0,0,0,0A27.23,27.23,0,0,0,424,5.61a29,29,0,0,0-17.11-3.56s0,0,0,0h0a24.76,24.76,0,0,0-10.34,3.26,22.3,22.3,0,0,0-3.29,2.34c-6.18,5.3-9.71,13.58-10.69,21.75-.08.63-.13,1.25-.16,1.88a.62.62,0,0,0,0,.23v0a6.83,6.83,0,0,0-1.31,3.59,7.21,7.21,0,0,0,4.13,7v.13c0,.42,0,.86,0,1.28A23.44,23.44,0,0,0,387,51.9c1.91,4.49,5.29,9.62,11,10.43a28.87,28.87,0,0,0,3.08.28l2.71,11.61,2.33,10.07c10.15-5.77,21.43-11.28,32.15-7.91l4.79,2c5,1.55,6,6,9.78,9.77,11.91,9.71,25.31,55.92,26.12,58.79a.26.26,0,0,0,0,.1s0,0,0,0,0,.05,0,.08a3.12,3.12,0,0,0,.15.39c.05.15.1.29.16.44s.23.58.35.88c2.35,6.13,10,26.12,11.74,31,2,5.83,3.63,6.28,3.63,6.28a.82.82,0,0,0,.24-.1l.33-.13a51.08,51.08,0,0,0,14.12-8.6h0s0,0,0,0a32.74,32.74,0,0,0,8.21-14.2A33.67,33.67,0,0,0,518.94,146.66Z"/><path class="cls-6" d="M387.74,27.52S389,6.76,408.36,1.9,439.31,19.55,440.18,34s0,24.43,10.19,29c0,0,29.43-.36,40.28,26.7,0,0,1.47,13.24.87,21.78s10,16,15.84,18.64,15.88,13.34,13.14,30.83-25.63,25.65-25.63,25.65-19.55,5.79-31.34-3.87c-12.52-10.27-9-29-9-29s6.76-61-5.55-71c-6.77-5.52-9.84-5-14.62-7.93-5-3.06-6.84-4-8.53-6.15C422.57,64.4,416.75,58,421,43s0-7.46-4-9.58c0,0-4.91-7.58-12.32-2.22s-5.6-7.71-5.6-7.71l-3.26,4.37S390.7,28.87,387.74,27.52Z"/><path d="M482.85,189.82c-6.73,0-14.9-1.25-21.23-6.13S452,171.17,451.85,161l3.85-.06c.12,8.9,2.9,15.52,8.26,19.66,10.93,8.44,29.31,4.34,30.4,4.09,11.87-3.72,19.54-11.17,22.8-22.15,2.78-9.39,2.11-22.8-8.92-29.72-1.11-.69-2.25-1.34-3.46-2-4.68-2.67-9.53-5.43-12.46-10.46-3.15-5.4-3-11.36-2.91-17.14a47.68,47.68,0,0,0-.43-9.66c-1.44-7.75-6.57-15.37-14.08-20.89a39,39,0,0,0-17.2-7.09,33.29,33.29,0,0,0-3.42-.28c-3.6-.18-7.33-.36-10.31-4.23-5.61-7.26-5.67-18.69-5.71-27a33,33,0,0,0-4.44-16.85l1.58-1.11-1.64,1A28,28,0,0,0,424,7.27c-7.78-4.49-18.31-4.62-25.6-.3a21.13,21.13,0,0,0-3,2.15c-6.54,5.61-10.49,15.4-10.3,25.55l-3.84.07c-.21-11.27,4.25-22.2,11.63-28.53a24.6,24.6,0,0,1,3.56-2.55c8.44-5,20.56-4.86,29.48.29A31.63,31.63,0,0,1,437,15.09l.09.14a36.75,36.75,0,0,1,5,18.76c0,7.83.1,18.51,4.91,24.74,1.9,2.47,4.23,2.58,7.45,2.74a34.84,34.84,0,0,1,3.81.33,42.65,42.65,0,0,1,18.91,7.78c8.28,6.1,14,14.59,15.58,23.29a51.47,51.47,0,0,1,.49,10.44c-.11,5.48-.22,10.66,2.39,15.12,2.41,4.14,6.6,6.53,11.05,9.07,1.18.67,2.41,1.37,3.58,2.1,10.59,6.64,14.73,20,10.57,34.07-3.64,12.31-12.19,20.63-25.4,24.74l-.11,0A57.33,57.33,0,0,1,482.85,189.82Z"/><path d="M403.19,64.56a31.78,31.78,0,0,1-4.49-.33c-5.31-.75-9.64-4.75-12.53-11.57a24.69,24.69,0,0,1-1.1-16.38c1.81-6.29,5.18-8.37,7.69-9,3-.77,3.68-3.79,3.81-4.7l3.8.56A9.16,9.16,0,0,1,393.71,31c-2.23.57-3.9,2.71-4.94,6.36a20.79,20.79,0,0,0,.94,13.81c1.63,3.84,4.61,8.57,9.53,9.27,9.41,1.34,14-2.34,14.22-2.5l2.47,2.94C415.73,61.05,411.46,64.56,403.19,64.56Z"/><circle cx="407.21" cy="36.3" r="1.8"/><circle cx="391.36" cy="35.11" r="1.8"/><path d="M436.14,78.37c-13-4.53-16.4-12.89-17.83-19.74l-.45-1.07.21-.2a30.33,30.33,0,0,1,1.1-15.07,28.67,28.67,0,0,0,1.53-4.95c.22-1.25,0-1.52,0-1.52-.67-.76-5.16-.49-9.5-.23l-2.81.16c-5.3.3-9.37-1.92-11.18-6.11a6.65,6.65,0,0,1-.4-1.06,11.88,11.88,0,0,1-.21-6.18l3.74.9a8,8,0,0,0,.15,4.17,2.91,2.91,0,0,0,.19.51l.05.11c.8,1.89,2.77,4.09,7.44,3.82l2.8-.16c7.11-.42,10.69-.63,12.6,1.51,1.46,1.65,1.05,4,.92,4.73a31.58,31.58,0,0,1-1.72,5.66,26.41,26.41,0,0,0-.75,14l.18.88c1.37,6,4.43,12.51,15.2,16.26Z"/><path d="M398.77,47.13a3.36,3.36,0,0,1-1.73-.42A2.45,2.45,0,0,1,395.86,45c-.07-.4-.27-1.46,1.74-8.81l3.7,1c-.57,2.08-1.17,4.53-1.46,6L401,46.74A7.22,7.22,0,0,1,398.77,47.13Z"/><path d="M404.37,54.12A9.61,9.61,0,0,1,399.84,53l1.83-3.39a5.39,5.39,0,0,0,4.22.48,4.36,4.36,0,0,0,2.61-2.19l3.44,1.72a8.2,8.2,0,0,1-4.9,4.14A9,9,0,0,1,404.37,54.12Z"/><path d="M410.18,47.94c-.32,0-.64,0-1,0a10.49,10.49,0,0,1-9.48-11.08,10,10,0,0,1,11-9.3,10.51,10.51,0,0,1,9.49,11.08h0a10,10,0,0,1-10,9.35Zm-.43-16.63a6.17,6.17,0,0,0-6.18,5.76,6.65,6.65,0,0,0,6,7,6.24,6.24,0,0,0,4.64-1.45,6.09,6.09,0,0,0,2.14-4.29h0a6.63,6.63,0,0,0-6-7Z"/><path d="M389.15,46c-.31,0-.63,0-.95,0a10.51,10.51,0,0,1-9.49-11.09,10,10,0,0,1,11-9.3,10.51,10.51,0,0,1,9.48,11.09,10,10,0,0,1-10,9.34Zm-.42-16.63a6.21,6.21,0,0,0-4,1.48,6.09,6.09,0,0,0-2.14,4.28,6.63,6.63,0,0,0,6,7,6.18,6.18,0,0,0,6.78-5.73h0a6.64,6.64,0,0,0-6-7Z"/><path class="cls-8" d="M388.76,30.7a3.87,3.87,0,0,1,.48,0A5.27,5.27,0,0,1,394,36.29a4.86,4.86,0,0,1-4.9,4.56l-.47,0a5.28,5.28,0,0,1-4.77-5.56,4.86,4.86,0,0,1,4.89-4.57Zm0-1.92A6.8,6.8,0,0,0,382,35.14a7.19,7.19,0,0,0,6.51,7.6l.65,0a6.79,6.79,0,0,0,6.81-6.35,7.2,7.2,0,0,0-6.51-7.61c-.22,0-.43,0-.65,0Z"/><rect x="397.53" y="34.52" width="3.84" height="4.43" transform="translate(326.46 431.18) rotate(-84.77)"/><path class="cls-8" d="M409.78,32.46a3.93,3.93,0,0,1,.49,0,5.46,5.46,0,0,1,4.94,5.75A5,5,0,0,1,410.14,43l-.49,0a5.44,5.44,0,0,1-4.93-5.74,5,5,0,0,1,5.06-4.72Zm0-1.93a7,7,0,0,0-7,6.52,7.37,7.37,0,0,0,6.68,7.79l.66,0a7,7,0,0,0,7-6.51,7.37,7.37,0,0,0-6.67-7.79c-.22,0-.45,0-.67,0Z"/><ellipse class="cls-6" cx="388.94" cy="35.78" rx="7.05" ry="7.22" transform="translate(95.94 294.05) rotate(-46.65)"/><ellipse class="cls-6" cx="409.97" cy="37.69" rx="7.08" ry="7.26" transform="translate(101.14 309.94) rotate(-46.65)"/><rect x="402.73" y="62.49" width="3.84" height="22.66" transform="translate(-6.21 93.41) rotate(-13.07)"/><path d="M461.25,411.94l-2.73,2.71-.27-.27-10.81-10.27-3.84-3.66-38.81-36.88,1.24-1.49-1.32,1.4-1.46-1.36-13-12.37A48.22,48.22,0,0,1,376,323.4l-8.62-46.94c-.38-1.92-.74-3.91-1.08-5.89l-.13-.72,3.78-.66.13.73c.34,1.94.7,3.91,1.08,5.86l0,.15,8.59,46.77A44.4,44.4,0,0,0,392.9,347l50.7,48.19,3.84,3.65Z"/><path d="M367.39,276.57l0-.11c-.38-1.92-.74-3.91-1.09-5.88l-.12-.73c-.54-3.17-1-6.25-1.41-9.18l3.8-.53c.4,2.9.87,5.94,1.39,9.06l.13.72c.34,1.94.7,3.91,1.08,5.86l0,.16Z"/><path d="M404.71,363.49l2.67-2.76.05,0,.07.08Z"/><path d="M516.88,423l-1.72.85H513c-.57-1.14-1.17-2.32-1.79-3.52-4.2-8.25-8.7-16.33-13.34-24l-.05-.07h0c-.92-1.56-1.89-3.12-2.86-4.7a301.52,301.52,0,0,0-23.07-32.32,197.6,197.6,0,0,0-24.45-25.08c-1-.89-2.09-1.75-3.13-2.58l-.07-.06c-.22-.17-.42-.34-.64-.5l-1-.77c-2.35-1.81-4.68-3.52-6.95-5.05a10.7,10.7,0,0,1-4.53-11.05c.73-3.61,1.43-7.22,2.13-10.83l.1-.54.21-1.11c2-10.42,3.67-20.14,5.19-29.74.21-1.27.41-2.55.6-3.82a1.29,1.29,0,0,1,0-.19l.09-.53h.13a1.91,1.91,0,0,1,1.64-.93v1.15l2,.28-.11.68v.05a2,2,0,0,1-.05.24c-.18,1.23-.37,2.45-.57,3.68-1.53,9.62-3.24,19.37-5.21,29.79-.07.35-.14.76-.21,1.15L437,304c-.7,3.65-1.41,7.26-2.14,10.88a6.92,6.92,0,0,0,2.92,7.11c1.9,1.28,3.84,2.67,5.78,4.14L445,327.2l1.67,1.31.08.06.72.58a198.58,198.58,0,0,1,27.43,27.62,308.5,308.5,0,0,1,23.35,32.75c1,1.6,2,3.17,2.91,4.75a.79.79,0,0,1,0,.09c4.69,7.76,9.22,15.92,13.48,24.23C515.43,420.11,516.16,421.58,516.88,423Z"/><line class="cls-2" x1="353.53" y1="423.87" x2="355.47" y2="423.87"/><path d="M472,422.51l-1.35,1.36H468c-3.07-3-6.13-6-9.28-9.09l-.15-.12-.27-.27-.9-.86c-2.87-2.78-5.89-5.65-9-8.54-.1-.09-.2-.2-.31-.29l-.49-.45h0l.84-.91,1.74-1.9.5.45c.13.14.28.26.41.4,3.41,3.18,6.71,6.32,9.87,9.37l0,0,.14.14a.32.32,0,0,1,.09.08h0l0,0C464.93,415.49,468.46,419,472,422.51Z"/><path d="M366,169.21l-3.84-.26c.53-7.66,1.23-15.32,2.13-23.43.07-.59.13-1.18.2-1.77l.15-1.28c1.47-13.53,8.42-27.45,20.09-40.25,12.34-13.53,24.9-22.27,37.32-26A37.88,37.88,0,0,1,437,74.64,22.33,22.33,0,0,1,454,86.38,36.59,36.59,0,0,1,457.8,99a.2.2,0,0,0,0,.07s0,.1,0,.16a108.17,108.17,0,0,1,.48,14.6c0,1.93-.05,3.93,0,5.85a351.61,351.61,0,0,1-2.59,41.57l-3.82-.42a345.1,345.1,0,0,0,2.56-41.11c0-2,0-4,0-5.94A102.21,102.21,0,0,0,454,99.61v-.06a.77.77,0,0,1,0-.15,32.67,32.67,0,0,0-3.36-11.22,18.45,18.45,0,0,0-14.07-9.72,34.24,34.24,0,0,0-13.37,1.46c-11.75,3.51-23.72,11.88-35.58,24.89-11.11,12.19-17.72,25.36-19.11,38.08l-.15,1.3c-.07.58-.13,1.16-.2,1.74C367.24,154,366.55,161.61,366,169.21Z"/><polygon points="360.99 203.64 360.99 203.62 364.83 203.62 360.99 203.64"/><path d="M313,220.49a4.23,4.23,0,0,1-3.4-1.86,8.53,8.53,0,0,1-1.44-3.4c-.22-1-.47-1.94-.72-2.91-.44-1.72-.89-3.5-1.21-5.33l3.79-.65c.29,1.67.7,3.3,1.15,5,.25,1,.51,2,.74,3a5,5,0,0,0,.73,1.89,1.18,1.18,0,0,0,.41.39,4.12,4.12,0,0,0,1.5-2.29c2.27-8.09-.54-18.32-7.16-26.06l2.93-2.5c5.9,6.92,11.09,18.33,7.93,29.59-.59,2.11-2.26,4.58-4.52,5A3.85,3.85,0,0,1,313,220.49Z"/><path d="M314.17,220.38l-1-3.71c7.63-2,15.59-3.81,24-5.7,47.73-10.73,101.83-22.89,115-83A96,96,0,0,0,454,99.37l3.83-.33A100.39,100.39,0,0,1,456,128.78c-13.69,62.51-69.06,75-117.91,85.94C329.66,216.6,321.74,218.38,314.17,220.38Z"/><path d="M438.82,269.58c-17.57,0-45.65-3.45-66.6-6.44-.42-.07-.77-.12-1.11-.15l-1.08-.15-1.52-.23-.44-.06-.41-.05-.38-.06-.35-.05-2.29-.34c-2.83-.42-5.31-.79-7.35-1.11a7.18,7.18,0,0,1-5.74-9.28c3-9.51,8.3-28,9.3-44.88l3.83.22c-1,17.33-6.37,36.15-9.47,45.83a3.3,3.3,0,0,0,.34,2.77,3.33,3.33,0,0,0,2.34,1.55l7.31,1.1,2.12.31.29,0,.55.09.47.06.41.06,1.53.22,1,.15c.33,0,.78.09,1.24.17,17.85,2.54,50.56,6.76,68.54,6.36.47,0,.9,0,1.31,0l1.36-.06.65,0,.64,0c6.52-.47,7.39-1.68,7.42-1.73,2.44-3.69,1.46-18.16.32-34.91-1.47-21.64-3.29-48.56-.42-75.43l3.82.41c-2.84,26.53-1,53.27.43,74.76,1.33,19.58,2.21,32.52-.94,37.28-1.29,2-4.49,3-10.39,3.46h-.14l-.49,0-.74,0-1.37.06c-.45,0-.93,0-1.41,0C440.57,269.57,439.71,269.58,438.82,269.58Z"/><path class="cls-1" d="M4.75,424C1,375,34,335.66,34.3,335.27l2.92,2.49c-.32.38-32.27,38.51-28.64,86Z"/></g></g></svg>